HIERARCHY
ROOT root
{
	OFFSET	0	13.1	24.9
	CHANNELS 6  Xposition Yposition Zposition Xrotation Yrotation Zrotation
	JOINT spine_1
	{
		OFFSET	0	9.99999	0
		CHANNELS 3  Xrotation Yrotation Zrotation
		JOINT spine_2
		{
			OFFSET	0	112	-10
			CHANNELS 3  Xrotation Yrotation Zrotation
			JOINT spine_3
			{
				OFFSET	0	206.5	19.3
				CHANNELS 3  Xrotation Yrotation Zrotation
				JOINT spine_4
				{
					OFFSET	0	110.4	14.6
					CHANNELS 3  Xrotation Yrotation Zrotation
					JOINT neck_1
					{
						OFFSET	0	71.8	-50.3
						CHANNELS 3  Xrotation Yrotation Zrotation
						JOINT neck_2
						{
							OFFSET	0	86.2	-25.8
							CHANNELS 3  Xrotation Yrotation Zrotation
							JOINT head_ee
							{
								OFFSET	0	179.8	-8.7
								CHANNELS 3  Xrotation Yrotation Zrotation
								End Site
								{
									OFFSET	1	0	0
								}
							}
						}
					}
					JOINT left_clavicle
					{
						OFFSET	-43.2	22.4	-70.8
						CHANNELS 3  Xrotation Yrotation Zrotation
						JOINT left_shoulder
						{
							OFFSET	-93.9	-5.79999	48.7
							CHANNELS 3  Xrotation Yrotation Zrotation
							JOINT left_elbow
							{
								OFFSET	-291.4	-30.8	15.2
								CHANNELS 3  Xrotation Yrotation Zrotation
								JOINT left_lowarm_twist
								{
									OFFSET	-110.7	-3.89999	13.6
									CHANNELS 3  Xrotation Yrotation Zrotation
									JOINT left_hand
									{
										OFFSET	-110.7	-3.89999	13.6
										CHANNELS 3  Xrotation Yrotation Zrotation
										JOINT left_ee
										{
											OFFSET	-80.8	-5.10001	12.1
											CHANNELS 3  Xrotation Yrotation Zrotation
											End Site
											{
												OFFSET	1	0	0
											}
										}
									}
								}
							}
						}
					}
					JOINT right_clavicle
					{
						OFFSET	43.2	22.4	-70.8
						CHANNELS 3  Xrotation Yrotation Zrotation
						JOINT right_shoulder
						{
							OFFSET	93.9	-5.79999	48.7
							CHANNELS 3  Xrotation Yrotation Zrotation
							JOINT right_elbow
							{
								OFFSET	291.4	-30.8	15.2
								CHANNELS 3  Xrotation Yrotation Zrotation
								JOINT right_lowarm_twist
								{
									OFFSET	110.7	-3.89999	13.6
									CHANNELS 3  Xrotation Yrotation Zrotation
									JOINT right_hand
									{
										OFFSET	110.7	-3.89999	13.6
										CHANNELS 3  Xrotation Yrotation Zrotation
										JOINT right_ee
										{
											OFFSET	80.8	-5.10001	12.1
											CHANNELS 3  Xrotation Yrotation Zrotation
											End Site
											{
												OFFSET	1	0	0
											}
										}
									}
								}
							}
						}
					}
				}
			}
		}
	}
	JOINT left_hip
	{
		OFFSET	-82.8	-127.5	0.300001
		CHANNELS 3  Xrotation Yrotation Zrotation
		JOINT left_knee
		{
			OFFSET	-28.2	-396.7	2.2
			CHANNELS 3  Xrotation Yrotation Zrotation
			JOINT left_ankle
			{
				OFFSET	-11.7	-411.3	35.4
				CHANNELS 3  Xrotation Yrotation Zrotation
				JOINT left_toes
				{
					OFFSET	0	-60	-88.6
					CHANNELS 3  Xrotation Yrotation Zrotation
					JOINT left_foot_ee
					{
						OFFSET	-22.5	-16.5	-42.2
						CHANNELS 3  Xrotation Yrotation Zrotation
						End Site
						{
							OFFSET	1	0	0
						}
					}
				}
			}
		}
	}
	JOINT right_hip
	{
		OFFSET	82.8	-127.5	0.300001
		CHANNELS 3  Xrotation Yrotation Zrotation
		JOINT right_knee
		{
			OFFSET	28.2	-396.7	2.2
			CHANNELS 3  Xrotation Yrotation Zrotation
			JOINT right_ankle
			{
				OFFSET	11.7	-411.3	35.4
				CHANNELS 3  Xrotation Yrotation Zrotation
				JOINT right_toes
				{
					OFFSET	0	-60	-88.6
					CHANNELS 3  Xrotation Yrotation Zrotation
					JOINT right_foot_ee
					{
						OFFSET	22.5	-16.5	-42.2
						CHANNELS 3  Xrotation Yrotation Zrotation
						End Site
						{
							OFFSET	1	0	0
						}
					}
				}
			}
		}
	}
}
MOTION
Frames: 14
Frame Time: 0.02
2532.34425436 750.896 -1522.49049283 -137.321888101 86.8232721154 133.514709582 1.77247 0.094367 1.96131 1.77461 -0.0306027 1.96333 1.77354 -0.383297 1.92581 1.76837 -0.0744011 1.96216 -3.67736 5.79204 -6.30445 -3.43568 15.41 -5.65631 -0.0 0.0 -0.0 -3.31041 18.5987 -2.826 -10.3665 -42.4355 65.8604 0.185531 -5.25124 0.008508 -45.6256 -3.56832 4.43479 -0.998918 9.62859 -2.42176 -0.0 0.0 -0.0 10.0356 -1.88622 -19.6242 -6.62448 18.2253 -64.7011 2.72332 53.4423 -1.37114 3.63936 -0.113935 0.450813 2.10215 7.97224 -10.8721 0.0 0.0 0.0 15.3469 9.85423 -1.60746 -34.9617 -0.177728 5.28024 32.5415 26.9089 -4.44858 -34.8902 0.0 0.0 -0.0 0.0 -0.0 14.1291 16.2487 -3.65952 -10.8588 -0.292583 -1.6383 21.7259 -26.5949 3.12311 12.7548 -0.0 -0.0 0.0 0.0 0.0 
2527.44633466 752.737 -1522.27698421 -146.550984155 84.7836560308 143.146367646 1.73248 0.12064 1.98325 1.73467 -0.00577874 1.98691 1.73448 -0.36444 1.95322 1.72916 -0.051455 1.98625 -3.45189 5.98267 -6.95881 -3.15987 16.2659 -6.35024 -0.0 0.0 -0.0 -3.39061 16.6738 -3.34453 -12.1532 -41.6666 65.8999 0.192652 -5.4516 0.0091722 -46.0967 -3.62162 4.46335 -0.40571 10.698 1.83339 -0.0 0.0 -0.0 10.259 -2.7879 -20.0186 -5.66905 18.0498 -64.852 2.92795 55.4046 -1.5376 4.08257 -0.125846 0.506175 2.47985 13.2779 -11.1049 0.0 0.0 0.0 16.5041 9.35016 -2.21175 -27.7916 0.122299 4.22156 30.5537 25.1926 -4.17582 -37.1549 0.0 0.0 -0.0 0.0 -0.0 14.1705 15.6318 -3.96889 -9.92463 -0.279684 -1.49554 23.282 -27.7493 3.34912 9.72802 -0.0 -0.0 0.0 0.0 0.0 
2523.07238438 755.405 -1519.92426732 -149.529881 84.2444619275 145.926735408 1.70174 0.196277 2.09708 1.70419 0.0624675 2.10531 1.70656 -0.319684 2.08185 1.70051 0.0130412 2.1062 -3.29612 5.79387 -6.87602 -3.00954 15.8636 -6.31524 -0.0 0.0 -0.0 -3.20665 15.6221 -3.26495 -13.8874 -41.0113 65.1624 0.198069 -5.60391 0.00969401 -46.4047 -3.65659 4.48178 0.0363463 11.538 4.9949 -0.0 0.0 -0.0 10.3494 -3.63433 -20.1384 -4.57737 17.8498 -64.9256 2.92721 55.3978 -1.53699 4.42489 -0.134753 0.548997 2.64726 15.5168 -11.2098 0.0 0.0 0.0 17.3327 9.76538 -2.58432 -22.4932 0.257698 3.42002 30.2958 19.7094 -4.03205 -38.657 0.0 0.0 -0.0 0.0 -0.0 13.9917 15.1646 -4.11175 -9.87844 -0.278986 -1.48848 23.2828 -28.9667 3.37729 6.64935 -0.0 -0.0 0.0 0.0 0.0 
2505.70867212 767.26 -1514.81512687 -133.992437415 83.1244990045 131.744565089 1.73931 0.348316 2.19609 1.74197 0.207903 2.21379 1.75015 -0.194514 2.21501 1.74334 0.157658 2.21793 -1.39753 5.67932 -7.35406 -1.01946 16.0856 -7.148 -0.0 0.0 -0.0 -3.39402 13.8851 -3.91829 -16.9358 -39.7922 65.4476 0.236895 -6.69325 0.0138527 -46.978 -3.72194 4.51559 1.22204 12.2401 12.8791 -0.0 0.0 -0.0 10.2556 -6.43402 -19.7117 -5.30457 16.5821 -65.8762 2.94384 55.5492 -1.55069 4.81947 -0.144701 0.598419 3.01254 20.7962 -11.118 0.0 0.0 0.0 15.772 7.5262 -1.777 -7.15877 0.22787 1.07432 24.4958 19.01 -3.34866 -40.1814 0.0 0.0 -0.0 0.0 -0.0 14.7857 13.0241 -5.34035 -7.86541 -0.243042 -1.18169 19.9321 -28.4971 2.92249 -0.017741 0.0 0.0 0.0 0.0 0.0 
2465.65734631 763.331 -1525.44406269 -95.2193529628 84.3597157442 91.7722830613 1.82306 0.529673 2.94394 1.82782 0.341354 2.97165 1.84571 -0.194825 2.98483 1.83339 0.278803 2.97816 -0.960212 2.77092 -6.4757 -0.737372 10.1871 -6.58957 -0.0 0.0 -0.0 -3.16576 11.4884 -4.00955 -17.1763 -39.5367 63.1842 0.469579 -13.0952 0.0538973 -41.8072 -3.14538 4.18741 4.23807 11.9272 33.9476 -0.0 0.0 -0.0 10.3869 -6.71722 -19.9413 -12.4531 16.6465 -66.9236 1.39358 34.6169 -0.434296 2.6812 -0.0867221 0.331447 3.49318 22.6344 -13.3919 0.0 0.0 0.0 14.2647 -0.313738 -0.88988 -11.3976 0.298963 1.72073 29.9886 -6.37649 -3.98087 -37.2056 0.0 0.0 -0.0 0.0 -0.0 12.886 13.8495 -3.93924 -9.58515 -0.27442 -1.44371 22.1601 -23.0796 3.11744 -7.72748 0.0 0.0 0.0 0.0 0.0 
2465.64359057 763.331 -1525.35473073 -95.3732437001 84.3583066468 91.9269226655 1.82306 0.529673 2.94394 1.82782 0.341354 2.97165 1.84571 -0.194825 2.98483 1.83339 0.278803 2.97816 -0.960212 2.77092 -6.4757 -0.737372 10.1871 -6.58957 -0.0 0.0 -0.0 -3.16576 11.4884 -4.00955 -17.1763 -39.5367 63.1842 0.469579 -13.0952 0.0538973 -41.8072 -3.14538 4.18741 4.23807 11.9272 33.9476 -0.0 0.0 -0.0 10.3869 -6.71722 -19.9413 -12.4531 16.6465 -66.9236 1.39358 34.6169 -0.434296 2.6812 -0.0867221 0.331447 3.49318 22.6344 -13.3919 0.0 0.0 0.0 14.2647 -0.313738 -0.88988 -11.3976 0.298963 1.72073 29.9886 -6.37649 -3.98087 -37.2056 0.0 0.0 -0.0 0.0 -0.0 12.886 13.8495 -3.93924 -9.58515 -0.27442 -1.44371 22.1601 -23.0796 3.11744 -7.72748 0.0 0.0 0.0 0.0 0.0 
2465.45225419 763.331 -1524.09533194 -97.5328222247 84.3341223794 94.0970555579 1.82306 0.529673 2.94394 1.82782 0.341354 2.97165 1.84571 -0.194825 2.98483 1.83339 0.278803 2.97816 -0.960212 2.77092 -6.4757 -0.737372 10.1871 -6.58957 -0.0 0.0 -0.0 -3.16576 11.4884 -4.00955 -17.1763 -39.5367 63.1842 0.469579 -13.0952 0.0538973 -41.8072 -3.14538 4.18741 4.23807 11.9272 33.9476 -0.0 0.0 -0.0 10.3869 -6.71722 -19.9413 -12.4531 16.6465 -66.9236 1.39358 34.6169 -0.434296 2.6812 -0.0867221 0.331447 3.49318 22.6344 -13.3919 0.0 0.0 0.0 14.2647 -0.313738 -0.88988 -11.3976 0.298963 1.72073 29.9886 -6.37649 -3.98087 -37.2056 0.0 0.0 -0.0 0.0 -0.0 12.886 13.8495 -3.93924 -9.58515 -0.27442 -1.44371 22.1601 -23.0796 3.11744 -7.72748 0.0 0.0 0.0 0.0 0.0 
2465.00518737 763.331 -1521.01900302 -102.701977994 84.2417975828 99.2919690091 1.82306 0.529673 2.94394 1.82782 0.341354 2.97165 1.84571 -0.194825 2.98483 1.83339 0.278803 2.97816 -0.960212 2.77092 -6.4757 -0.737372 10.1871 -6.58957 -0.0 0.0 -0.0 -3.16576 11.4884 -4.00955 -17.1763 -39.5367 63.1842 0.469579 -13.0952 0.0538973 -41.8072 -3.14538 4.18741 4.23807 11.9272 33.9476 -0.0 0.0 -0.0 10.3869 -6.71722 -19.9413 -12.4531 16.6465 -66.9236 1.39358 34.6169 -0.434296 2.6812 -0.0867221 0.331447 3.49318 22.6344 -13.3919 0.0 0.0 0.0 14.2647 -0.313738 -0.88988 -11.3976 0.298963 1.72073 29.9886 -6.37649 -3.98087 -37.2056 0.0 0.0 -0.0 0.0 -0.0 12.886 13.8495 -3.93924 -9.58515 -0.27442 -1.44371 22.1601 -23.0796 3.11744 -7.72748 0.0 0.0 0.0 0.0 0.0 
2464.7270862 763.331 -1518.99768198 -105.988713649 84.1563807986 102.595612069 1.82306 0.529673 2.94394 1.82782 0.341354 2.97165 1.84571 -0.194825 2.98483 1.83339 0.278803 2.97816 -0.960212 2.77092 -6.4757 -0.737372 10.1871 -6.58957 -0.0 0.0 -0.0 -3.16576 11.4884 -4.00955 -17.1763 -39.5367 63.1842 0.469579 -13.0952 0.0538973 -41.8072 -3.14538 4.18741 4.23807 11.9272 33.9476 -0.0 0.0 -0.0 10.3869 -6.71722 -19.9413 -12.4531 16.6465 -66.9236 1.39358 34.6169 -0.434296 2.6812 -0.0867221 0.331447 3.49318 22.6344 -13.3919 0.0 0.0 0.0 14.2647 -0.313738 -0.88988 -11.3976 0.298963 1.72073 29.9886 -6.37649 -3.98087 -37.2056 0.0 0.0 -0.0 0.0 -0.0 12.886 13.8495 -3.93924 -9.58515 -0.27442 -1.44371 22.1601 -23.0796 3.11744 -7.72748 0.0 0.0 0.0 0.0 0.0 
2464.98792143 763.331 -1520.89608115 -102.904627266 84.2371517318 99.495646832 1.82306 0.529673 2.94394 1.82782 0.341354 2.97165 1.84571 -0.194825 2.98483 1.83339 0.278803 2.97816 -0.960212 2.77092 -6.4757 -0.737372 10.1871 -6.58957 -0.0 0.0 -0.0 -3.16576 11.4884 -4.00955 -17.1763 -39.5367 63.1842 0.469579 -13.0952 0.0538973 -41.8072 -3.14538 4.18741 4.23807 11.9272 33.9476 -0.0 0.0 -0.0 10.3869 -6.71722 -19.9413 -12.4531 16.6465 -66.9236 1.39358 34.6169 -0.434296 2.6812 -0.0867221 0.331447 3.49318 22.6344 -13.3919 0.0 0.0 0.0 14.2647 -0.313738 -0.88988 -11.3976 0.298963 1.72073 29.9886 -6.37649 -3.98087 -37.2056 0.0 0.0 -0.0 0.0 -0.0 12.886 13.8495 -3.93924 -9.58515 -0.27442 -1.44371 22.1601 -23.0796 3.11744 -7.72748 0.0 0.0 0.0 0.0 0.0 
2464.82990724 763.331 -1519.75556472 -104.768137535 84.1906389145 101.368698106 1.82306 0.529673 2.94394 1.82782 0.341354 2.97165 1.84571 -0.194825 2.98483 1.83339 0.278803 2.97816 -0.960212 2.77092 -6.4757 -0.737372 10.1871 -6.58957 -0.0 0.0 -0.0 -3.16576 11.4884 -4.00955 -17.1763 -39.5367 63.1842 0.469579 -13.0952 0.0538973 -41.8072 -3.14538 4.18741 4.23807 11.9272 33.9476 -0.0 0.0 -0.0 10.3869 -6.71722 -19.9413 -12.4531 16.6465 -66.9236 1.39358 34.6169 -0.434296 2.6812 -0.0867221 0.331447 3.49318 22.6344 -13.3919 0.0 0.0 0.0 14.2647 -0.313738 -0.88988 -11.3976 0.298963 1.72073 29.9886 -6.37649 -3.98087 -37.2056 0.0 0.0 -0.0 0.0 -0.0 12.886 13.8495 -3.93924 -9.58515 -0.27442 -1.44371 22.1601 -23.0796 3.11744 -7.72748 0.0 0.0 0.0 0.0 0.0 
2462.61862879 761.191 -1525.29722333 -104.611677686 84.1284492033 101.15698824 1.87294 0.397259 3.00114 1.87792 0.205572 3.02031 1.88877 -0.335046 3.00871 1.87617 0.144105 3.02386 -0.634973 3.31142 -7.35936 -0.333441 11.8832 -7.52426 -0.0 0.0 -0.0 -2.97598 9.73446 -4.01534 -16.6468 -39.7846 62.6827 0.466388 -13.0093 0.0531768 -40.839 -3.04083 4.12026 4.39708 11.7686 35.1557 -0.0 0.0 -0.0 10.3055 -8.88596 -19.5578 -13.1465 15.6674 -67.1703 1.31135 33.0063 -0.388533 4.58951 -0.138945 0.569607 3.17043 22.813 -11.1474 0.0 0.0 0.0 14.6748 -0.829608 -1.09281 -12.2543 0.30751 1.85188 29.2855 -6.02854 -3.89936 -37.7196 0.0 0.0 -0.0 0.0 -0.0 12.2663 14.0912 -3.32958 -9.58288 -0.274384 -1.44337 24.216 -23.1286 3.37602 -7.93535 0.0 0.0 0.0 0.0 0.0 
2460.47451797 760.568 -1534.70429336 -99.6748226932 84.0046867024 95.9200805625 2.06903 0.481872 3.06738 2.07422 0.285806 3.09179 2.08943 -0.257866 3.09424 2.07615 0.233808 3.09615 -1.75842 3.52502 -7.72512 -1.44953 12.4974 -7.74018 -0.0 0.0 -0.0 -2.66531 8.62783 -3.67067 -16.6903 -41.025 62.0284 0.490108 -13.6467 0.058645 -41.4396 -3.10555 4.16213 4.2635 12.1965 34.2265 -0.0 0.0 -0.0 10.4487 -8.76676 -19.8447 -13.1082 14.0059 -67.3003 1.06859 27.8936 -0.265382 3.61461 -0.113258 0.447724 2.92674 22.6603 -9.60962 0.0 0.0 0.0 15.1554 -0.986587 -0.75494 -13.4584 0.316206 2.03642 31.7733 -6.9357 -4.17911 -36.5783 0.0 0.0 -0.0 0.0 -0.0 12.1569 10.0564 -3.16607 -9.55744 -0.273977 -1.43948 26.649 -25.0137 3.71072 -7.35048 0.0 0.0 0.0 0.0 0.0 
2456.15601508 756.808 -1556.79567884 -78.897033191 83.2728386836 75.12869158 2.28089 0.423359 3.00727 2.28589 0.23123 3.02809 2.29758 -0.289565 3.02307 2.28488 0.191281 3.03087 -1.16405 4.3061 -7.4651 -0.829051 13.7215 -7.45687 -0.0 0.0 -0.0 -2.73982 7.36439 -4.02943 -15.9098 -42.9456 60.8178 0.615357 -16.9529 0.091708 -41.7992 -3.14451 4.18686 4.31823 12.5085 34.7482 -0.0 0.0 -0.0 10.715 -9.40109 -20.2789 -15.4799 10.3212 -67.1167 0.754238 20.487 -0.136302 4.51452 -0.137043 0.560217 2.25213 21.6338 -5.65627 0.0 0.0 0.0 15.801 -1.1591 -0.654134 -13.9005 0.318426 2.10422 32.1693 -6.92601 -4.22008 -36.9224 0.0 0.0 -0.0 0.0 -0.0 11.8408 10.436 -3.17904 -9.4357 -0.272006 -1.42091 29.2602 -24.5605 4.01109 -7.60882 0.0 0.0 0.0 0.0 0.0 
